<?xml version="1.0" standalone="no"?>
<!DOCTYPE svg PUBLIC "-//W3C//DTD SVG 20010904//EN"
 "http://www.w3.org/TR/2001/REC-SVG-20010904/DTD/svg10.dtd">
<svg version="1.0" xmlns="http://www.w3.org/2000/svg"
 width="150.000000pt" height="150.000000pt" viewBox="0 0 150.000000 150.000000"
 preserveAspectRatio="xMidYMid meet">

<g transform="translate(0.000000,150.000000) scale(0.100000,-0.100000)"
fill="#000000" stroke="none">
<path d="M256 1283 c-9 -10 -7 -60 5 -109 8 -32 22 -53 45 -71 19 -14 31 -29
28 -34 -10 -17 17 -89 43 -108 37 -30 95 -28 130 5 15 14 22 23 16 19 -15 -7
-17 4 -4 24 5 7 13 11 17 8 5 -3 10 24 12 58 3 63 3 64 -25 67 -23 2 -33 13
-55 58 -15 30 -32 60 -37 66 -5 7 -8 13 -6 15 5 7 -163 8 -169 2z m249 -313
c-3 -5 -11 -10 -16 -10 -6 0 -7 5 -4 10 3 6 11 10 16 10 6 0 7 -4 4 -10z"/>
<path d="M649 1218 c32 -63 41 -73 67 -76 39 -5 45 -16 43 -89 -2 -72 12 -95
67 -113 43 -14 93 0 113 32 l14 23 -25 -22 c-28 -27 -81 -32 -72 -8 4 9 19 15
35 15 26 0 34 9 30 33 -1 8 22 5 29 -4 3 -4 6 22 7 57 0 35 -2 64 -5 65 -62 7
-80 21 -112 89 -13 27 -30 52 -38 55 -8 3 -54 8 -102 10 l-88 5 37 -72z"/>
<path d="M1037 1205 c32 -60 37 -65 75 -71 22 -4 41 -12 44 -18 2 -6 5 -40 6
-76 3 -61 5 -66 37 -87 44 -30 93 -30 123 0 13 12 17 16 8 10 -27 -21 -90 -14
-90 10 0 6 3 7 6 4 7 -6 74 75 74 89 0 4 9 15 21 25 28 24 16 39 -30 39 -33 0
-43 7 -86 56 -56 65 -93 84 -169 84 l-54 0 35 -65z"/>
<path d="M597 586 c-7 -18 9 -31 46 -40 57 -14 96 -140 63 -204 -20 -40 -21
-96 0 -113 8 -7 22 -25 30 -41 18 -34 58 -38 76 -8 15 24 66 27 74 5 7 -18 36
-28 58 -19 11 4 16 18 16 44 0 35 -2 38 -37 44 -21 3 -71 6 -110 6 -71 0 -73
1 -73 25 0 24 2 25 74 25 83 0 132 14 146 40 6 10 10 48 10 84 0 97 -12 106
-143 106 -91 0 -106 2 -122 20 -10 11 -34 24 -54 30 -46 13 -48 13 -54 -4z
m323 -96 c0 -6 -35 -10 -85 -10 -50 0 -85 4 -85 10 0 6 35 10 85 10 50 0 85
-4 85 -10z m20 -60 c0 -23 -39 -33 -120 -28 -48 3 -55 6 -58 26 -3 21 -1 22
87 22 84 0 91 -2 91 -20z m-203 -47 c-3 -10 -5 -4 -5 12 0 17 2 24 5 18 2 -7
2 -21 0 -30z m131 -20 c-21 -2 -55 -2 -75 0 -21 2 -4 4 37 4 41 0 58 -2 38 -4z
m-123 -31 c-3 -3 -11 0 -18 7 -9 10 -8 11 6 5 10 -3 15 -9 12 -12z"/>
</g>
</svg>
