<svg width="40" height="40" viewBox="0 0 40 40" fill="none" xmlns="http://www.w3.org/2000/svg">
<rect width="40" height="40" rx="10" fill="#FFDE00"/>
<path d="M13.3223 15V6.27273H17.0893C17.737 6.27273 18.3038 6.39062 18.7896 6.62642C19.2754 6.86222 19.6532 7.2017 19.9231 7.64489C20.193 8.08807 20.3279 8.61932 20.3279 9.23864C20.3279 9.86364 20.1887 10.3906 19.9103 10.8196C19.6348 11.2486 19.247 11.5724 18.747 11.7912C18.2498 12.0099 17.6689 12.1193 17.0041 12.1193H14.7541V10.2784H16.5268C16.8052 10.2784 17.0424 10.2443 17.2385 10.1761C17.4373 10.1051 17.5893 9.9929 17.6944 9.83949C17.8024 9.68608 17.8564 9.4858 17.8564 9.23864C17.8564 8.98864 17.8024 8.78551 17.6944 8.62926C17.5893 8.47017 17.4373 8.35369 17.2385 8.27983C17.0424 8.20312 16.8052 8.16477 16.5268 8.16477H15.6916V15H13.3223ZM18.4359 10.9943L20.6177 15H18.0439L15.9132 10.9943H18.4359ZM21.3379 15V6.27273H27.6277V8.18182H23.7072V9.68182H27.3038V11.5909H23.7072V13.0909H27.6106V15H21.3379ZM22.8528 19.5455H20.4494C20.4324 19.3466 20.3869 19.1662 20.313 19.0043C20.242 18.8423 20.1426 18.7031 20.0147 18.5866C19.8897 18.4673 19.7377 18.3764 19.5588 18.3139C19.3798 18.2486 19.1767 18.2159 18.9494 18.2159C18.5517 18.2159 18.215 18.3125 17.9395 18.5057C17.6667 18.6989 17.4593 18.9759 17.3173 19.3366C17.1781 19.6974 17.1085 20.1307 17.1085 20.6364C17.1085 21.1705 17.1795 21.6179 17.3216 21.9787C17.4664 22.3366 17.6752 22.6065 17.948 22.7884C18.2207 22.9673 18.5488 23.0568 18.9324 23.0568C19.1511 23.0568 19.3471 23.0298 19.5204 22.9759C19.6937 22.919 19.8443 22.8381 19.9721 22.733C20.1 22.6278 20.2037 22.5014 20.2832 22.3537C20.3656 22.2031 20.421 22.0341 20.4494 21.8466L22.8528 21.8636C22.8244 22.233 22.7207 22.6094 22.5417 22.9929C22.3627 23.3736 22.1085 23.7259 21.7789 24.0497C21.4522 24.3707 21.0474 24.6293 20.5645 24.8253C20.0815 25.0213 19.5204 25.1193 18.8812 25.1193C18.0801 25.1193 17.3613 24.9474 16.725 24.6037C16.0914 24.2599 15.59 23.7543 15.2207 23.0866C14.8542 22.419 14.671 21.6023 14.671 20.6364C14.671 19.6648 14.8585 18.8466 15.2335 18.1818C15.6085 17.5142 16.1142 17.0099 16.7505 16.669C17.3869 16.3253 18.0971 16.1534 18.8812 16.1534C19.4324 16.1534 19.9395 16.2287 20.4025 16.3793C20.8656 16.5298 21.2718 16.75 21.6213 17.0398C21.9707 17.3267 22.252 17.6804 22.465 18.1009C22.6781 18.5213 22.8074 19.0028 22.8528 19.5455ZM26.2971 16.2727V25H23.9277V16.2727H26.2971ZM13.3926 35V26.2727H17.1596C17.8074 26.2727 18.3741 26.4006 18.8599 26.6562C19.3457 26.9119 19.7235 27.2713 19.9934 27.7344C20.2633 28.1974 20.3983 28.7386 20.3983 29.358C20.3983 29.983 20.2591 30.5241 19.9806 30.9815C19.7051 31.4389 19.3173 31.7912 18.8173 32.0384C18.3201 32.2855 17.7392 32.4091 17.0744 32.4091H14.8244V30.5682H16.5971C16.8755 30.5682 17.1127 30.5199 17.3088 30.4233C17.5076 30.3239 17.6596 30.1832 17.7647 30.0014C17.8727 29.8196 17.9267 29.6051 17.9267 29.358C17.9267 29.108 17.8727 28.8949 17.7647 28.7188C17.6596 28.5398 17.5076 28.4034 17.3088 28.3097C17.1127 28.2131 16.8755 28.1648 16.5971 28.1648H15.7619V35H13.3926ZM21.2676 35V26.2727H27.5574V28.1818H23.6369V29.6818H27.2335V31.5909H23.6369V33.0909H27.5403V35H21.2676Z" fill="black"/>
</svg>
