<svg width="44" height="44" fill="none" xmlns="http://www.w3.org/2000/svg" class="copyright_matureIcon__ySf8s" role="img" aria-label="16+"><circle cx="22" cy="22" r="22" fill="#2F2F2F"></circle><path d="M8.081 28h6.858v-1.116h-2.79V15.346h-1.152L8.135 18.19l.792.792 1.35-1.332c.504-.504.63-.756.63-.756h.036s-.018.342-.018.702v9.288H8.081V28Zm8.58-5.706c0 3.384 1.818 5.922 4.572 5.922 2.214 0 3.96-1.62 3.96-4.176 0-2.466-1.62-4.14-3.924-4.14-1.314 0-2.592.576-3.204 1.476h-.036c.216-2.448 1.566-5.058 4.176-5.058.648 0 1.404.162 1.872.432l.468-1.098c-.72-.36-1.53-.522-2.34-.522-3.906 0-5.544 3.978-5.544 7.164Zm4.644 4.752c-2.178 0-3.294-2.43-3.294-3.726 0-1.368 1.512-2.304 3.06-2.304 1.728 0 2.862 1.17 2.862 2.988 0 1.746-1.044 3.042-2.628 3.042Zm5.254-3.636h4.158V28h1.098v-4.59h4.14v-1.044h-4.14v-4.59h-1.098v4.59h-4.158v1.044Z" fill="#fff"></path></svg>