  <svg
        width="64"
        height="52"
        fill="none"
        xmlns="http://www.w3.org/2000/svg"
      >
        <g stroke="#666363">
          <path
            clip-rule="evenodd"
            d="m57.103 40.147-30.795-5.46c-.221-.04-.364-.288-.317-.554l5.403-30.811c.047-.267.264-.45.485-.411l30.795 5.46c.222.04.363.287.317.554l-5.402 30.811c-.047.266-.264.45-.486.411z"
            stroke-linecap="round"
            stroke-linejoin="round"
            stroke-dasharray="11.38 11.38"
          ></path>
          <path
            fill-rule="evenodd"
            clip-rule="evenodd"
            d="m50.255 43.663-41.34 7.33c-.296.053-.588-.194-.651-.552L1.012 9.081c-.063-.359.128-.69.425-.743l41.34-7.33c.297-.054.587.193.65.551L50.68 42.92c.063.357-.126.69-.424.743v0z"
            fill="#F8F8F8"
            stroke-linecap="round"
            stroke-linejoin="round"
            stroke-dasharray="11.38 11.38"
          ></path>
          <g fill="#666363">
            <path d="M29.456 21.463c.404.17.713.602.846 1.179.26 1.128-.24 2.168-1.104 2.495-.829.314-1.817-.103-2.19-1.105-.372-.994-.102-1.926.533-2.372.576-.404 1.385-.419 1.915-.197z"></path>
            <path d="M27.837 32.617a.592.592 0 0 0 .296-.074.81.81 0 0 0 .148-.105c.073-.064.14-.141.197-.213a6.2 6.2 0 0 0 .353-.51c.114-.18.224-.364.311-.51l.016-.027a25.796 25.796 0 0 1 .133-.222l.014-.022 2.311-3.24a.098.098 0 0 1 .026-.024.098.098 0 0 1 .035-.015 35.375 35.375 0 0 1 4.424 4.401l1.043 1.24-.163-1.612c-.378-3.725-1.013-7.23-1.66-10.795a341.808 341.808 0 0 1-.774-4.386l-.084-.499-.498.09c-2.982.538-7.804 1.411-11.88 2.15l-5.232.947-1.591.288-.433.079-.113.02-.028.005-.008.002h-.002l.089.492-.09-.492-.488.089.086.49 2.614 14.91.984.005c.088-.47.173-.94.258-1.406.552-3.042 1.084-5.965 2.31-8.596l-.454-.211.453.212a.213.213 0 0 1 .053-.074.078.078 0 0 1 .015-.01.017.017 0 0 1 .005-.002h.005c.006.003.027.012.056.044l5.393 5.84c.028.03.095.11.2.236.019.022.038.046.06.07.13.158.294.353.46.544.166.188.342.381.498.53.078.074.16.147.242.206.04.029.091.062.148.089a.64.64 0 0 0 .262.066zm0 0 .011-.5-.01.5zM13.54 18.72l1.124-.2a.3.3 0 0 1 .069-.02l-1.193.22zm0 0c-.35.061-.477.376-.433.664l.433-.665zm18.13 8.928h.001zm6.122 5.533.012.078-.016.175.053.054a1.423 1.423 0 0 1 .01.224c-5.395 1.057-11.776 2.139-16.56 2.95-1.689.286-3.178.539-4.356.744l-.086.016-.087.016-3.154-17.988a.136.136 0 0 1-.002-.034l.004-.055-.009-.054a.207.207 0 0 1 0-.062.096.096 0 0 1 .008-.028.09.09 0 0 1 .018-.005l1.125-.2.034-.006.032-.01.016-.005.005-.002 19.85-3.584.011-.003c.003 0 .006 0 .009.002l.083.046.094.013a.055.055 0 0 1 .015.004l.002.002.002.001.003.006c.004.006.01.02.014.046l.493-.085-.493.084a1476.31 1476.31 0 0 1 1.823 11.098 2359.697 2359.697 0 0 1 1.047 6.562zm-21.216 4.275zm.233.253-.492.086.493-.086z"></path>
          </g>
        </g>
      </svg>