<svg width="151" height="150" fill="none" xmlns="http://www.w3.org/2000/svg"><g clip-path="url(#avoca-circle_svg__a)"><path d="M75.7 150.15c41.486 0 75.117-33.605 75.117-75.058C150.817 33.638 117.186.033 75.7.033 34.214.033.583 33.638.583 75.092c0 41.453 33.631 75.058 75.117 75.058Z" fill="#241F20"></path><path d="M34.309 63.003c-.22-.074-.454-.118-.684-.162-2.158-.439-4.316-.879-6.48-1.303-.341-.069-.532-.215-.649-.557-.366-1.07-.732-2.134-1.162-3.179-.845-2.065-2.178-2.812-4.355-2.382-4.239.844-7.925 2.822-11.207 5.6-1.274 1.08-1.684 2.427-1.425 4.033.029.19.053.386.078.581.571 4.112 2.09 7.842 4.56 11.172.762 1.026 1.783 1.69 3.076 1.831.972.108 1.949.103 2.906-.151 2.29-.615 4.37-1.729 6.484-2.759 1.206-.59 2.344-1.318 3.423-2.124.952-.713 1.416-1.626 1.25-2.837a8.72 8.72 0 0 0-.332-1.538l-.581-1.733c1.47-.699 2.915-1.377 4.35-2.066.333-.16.67-.322.987-.508.4-.229.659-.556.596-1.05-.054-.497-.406-.727-.835-.868Zm-11.744 1.62c-.312 2.11-.986 4.122-1.713 6.114-.45 1.23-1.172 1.538-2.33.937-2.431-1.254-4.199-3.13-5.107-5.747a3.4 3.4 0 0 1-.185-1.382c.078-1.127.996-1.728 2.065-1.367.693.235 1.191.728 1.675 1.236.293.307.566.63.908 1.015.259-1.416.615-2.68 1.455-3.76.288-.37.62-.703 1.02-.952.87-.537 1.763-.239 2.13.723.395 1.05.239 2.124.082 3.184Z" fill="#F26943"></path><path d="M142.131 84.428c-.352-.425-.85-.386-1.446.049-1.474 1.074-2.964 2.128-4.507 3.232-.019-.21-.024-.342-.039-.474-.107-1.069-.122-2.148-.376-3.193-.151-.63-.405-1.211-1.128-1.353-.668-.127-1.098.298-1.464.772-.337.43-.655.874-.972 1.318-.566.791-1.123 1.587-1.689 2.383-.23-.186-.24-.415-.303-.61-.381-1.123-.777-2.246-1.314-3.306-.239-.469-.483-.938-.864-1.313-.478-.464-1.089-.552-1.689-.435-.562.112-.66.65-.757 1.138-.176.86-.381 1.709-.547 2.573a30.351 30.351 0 0 0-.361 2.31c-.069.58.258 1.015.732 1.103.469.083.874-.225 1.045-.81.049-.167.073-.342.107-.513.215-1.065.303-2.158.738-3.335.219.517.405.903.551 1.299.401 1.074.757 2.168 1.177 3.237.479 1.206 1.416 1.372 2.305.42.6-.64 1.094-1.372 1.597-2.095.375-.532.751-1.064 1.142-1.621.156.19.108.352.127.493.132 1.026.103 2.07.327 3.086.244 1.099 1.104 1.475 2.022.835a262.85 262.85 0 0 0 5.234-3.75c.61-.43.718-.996.352-1.44ZM126.101 72.334c.566.107.917-.254 1.113-1.148.244-1.118.576-2.207.967-3.364.468.625.727 1.27 1.049 1.88.406.776.757 1.587 1.211 2.334.567.938 1.524.938 2.119.034.298-.454.547-.942.791-1.43.303-.596.577-1.207.918-1.92.064.391.098.645.147.894.127.689.205 1.392.4 2.066.342 1.176 1.265 1.425 2.188.625.176-.152.337-.328.498-.499 1.138-1.181 2.27-2.363 3.408-3.544.298-.308.615-.601.889-.928.42-.498.395-1.06-.025-1.397-.405-.322-.893-.22-1.338.24a892.249 892.249 0 0 1-3.691 3.842c-.103.108-.171.264-.41.293l-.176-1.132c-.146-.904-.2-1.832-.6-2.671-.459-.967-1.48-1.045-2.09-.166-.186.268-.327.576-.469.874-.479 1.01-.952 2.026-1.47 3.13-.21-.42-.376-.752-.537-1.08-.513-1.03-1.011-2.065-1.675-3.007-.346-.494-.757-.928-1.435-.835-.65.088-.933.59-1.133 1.137-.518 1.387-.957 2.798-1.26 4.248-.19.89.034 1.412.611 1.524ZM35.554 33.735a16.056 16.056 0 0 1-2.359 1.665c-.098-.986-.136-1.92-.288-2.832-.244-1.45-1.28-1.948-2.578-1.27-.654.342-1.27.757-1.904 1.138-.293.17-.562.39-.938.483l-.083-.507c-.17-1.119-.166-2.256-.44-3.36-.331-1.338-1.303-1.704-2.402-.889-.82.606-1.533 1.329-2.221 2.076-.186.205-.337.434-.39.708-.094.473.067.869.512 1.064.43.19.81.054 1.06-.351.434-.708 1.103-1.187 1.777-1.866.058.498.102.845.141 1.192.093.835.132 1.675.342 2.49.313 1.23 1.196 1.67 2.354 1.138.561-.26 1.079-.615 1.62-.923.45-.254.85-.606 1.412-.777.044.562.083 1.08.132 1.602.049.523.078 1.055.18 1.567.25 1.26 1.04 1.66 2.188 1.084 1.123-.556 2.129-1.298 3.076-2.114.498-.425.547-1 .195-1.396-.366-.42-.844-.386-1.386.078Z" fill="#FDFDFD"></path><path d="M17.873 65.434c.259-1.416.615-2.68 1.455-3.76.288-.37.62-.703 1.02-.952.87-.537 1.764-.24 2.13.723.4 1.045.239 2.119.083 3.179-.313 2.109-.987 4.12-1.714 6.113-.45 1.23-1.172 1.538-2.33.937-2.43-1.255-4.198-3.13-5.107-5.747a3.398 3.398 0 0 1-.185-1.382c.078-1.128.996-1.728 2.065-1.367.694.235 1.192.728 1.675 1.236.293.312.567.634.908 1.02ZM99.719 27.06c4.311.737 8.818 1.796 12.021 4.775 2.964 2.759 4.405 6.85 4.737 10.889.332 4.038-.332 8.08-.992 12.075l-10.268 62.036c-.313 1.89-.669 3.877-1.88 5.366-2.012 2.466-5.62 2.739-8.804 2.744a211.886 211.886 0 0 1-33.398-2.612c-5.015-.796-10.488-2.065-13.487-6.167-2.548-3.491-2.627-8.145-2.607-12.471l.234-45.78c.05-9.112-2.382-29.088 9.605-31.08 14.746-2.446 30.122-2.285 44.839.225Z" fill="#fff"></path><path d="M42.19 61.23c-.264 1.66-.254 3.34-.391 5.005-.117 1.421-.127 2.857-.303 4.273-.19 1.547-.195 3.11-.332 4.658-.102 1.133-.112 2.295-.21 3.432-.137 1.524-.146 3.057-.307 4.58-.21 1.968-.25 3.956-.445 5.923-.195 1.983-.185 3.975-.395 5.962-.132 1.275-.186 2.578-.22 3.877-.049 1.807-.215 3.613-.317 5.42-.074 1.211-.093 2.432-.206 3.643-.112 1.245-.21 2.5-.292 3.74-.069 1.001-.103 2.026-.137 3.037-.083 2.295-.479 4.58-.186 6.885.284.054.415.332.513.508.19.337-.166.312-.376.341.01.069.015.132.024.201.196.288.67.493.279.957-.054.468.078.913.21 1.357.249.84.385 1.733.776 2.5.855 1.694 2.417 2.627 4.097 3.34 1.86.786 3.813 1.328 5.771 1.811 5.42 1.333 10.908 2.3 16.47 2.837 3.848.371 7.7.684 11.562.772 4.473.102 8.94.039 13.404-.293 4.438-.332 8.862-.801 13.203-1.802 3.32-.766 6.802-1.157 9.648-3.335.601-.459 1.201-.957 1.46-1.66.523-1.406 1.084-2.813 1.05-4.355-.225-.235-.073-.411.088-.586.005-.381.015-.762.02-1.143-.313-.537-.206-1.108-.127-1.675.014-.097.146-.107.244-.107-.113-.254.166-.405.161-.64-.02-.991-.059-1.987.171-2.969-.132-.244-.767-.459-.039-.747 0-.073-.005-.146-.005-.224-.41-.259-.254-.484.039-.703-.108-.664.019-1.324.112-1.968.117-.85.025-1.695.044-2.534.02-.699.239-1.372.171-2.061-.073-.723.161-1.416.088-2.148a4.981 4.981 0 0 1 .024-1.133c.157-1.128.303-2.261.108-3.403-.03-.171-.122-.396-.049-.503.434-.645.102-1.372.268-2.056.249-1.045-.21-2.148.152-3.208.024-.064-.034-.151-.025-.23.064-.771-.092-1.557.132-2.319.127-.434.113-.86.039-1.308-.068-.406.044-.84-.014-1.265-.347-.44-.205-.825.127-1.196.004-.064.004-.132.009-.196.035-.137-.249-.273.005-.41l-.014-.552c-.191-.112-.079-.19.029-.263.088-.142.078-.298.083-.454.034-1.167.073-2.334.107-3.501-.273-.313-.058-.528.152-.738.073-.175-.108-.288-.113-.444-.068-.083-.044-.151.03-.22.122-.903-.025-1.826.19-2.724-.483-.108-.508-.26-.112-.713.024-.108.054-.215.078-.318-.259-.014-.22-.21-.22-.376 0-.22.176-.205.318-.23.029-.497-.21-.99-.064-1.483.108-.352.195-.699.191-1.075-.015-1.07-.093-2.133.131-3.198.108-.518.093-1.08.035-1.606a7.088 7.088 0 0 1 .053-2.11c.132-.718.039-1.43.093-2.148.073-.957.161-1.924.073-2.89-.058-.63.191-1.256.103-1.886-.029-.21.317-.537-.171-.62.117-.151.195-.327.288-.488.303-.523-.068-1.02.01-1.533.166-1.123.102-2.261.22-3.394.141-1.367-.03-2.754.205-4.126.019-.127-.083-.2-.186-.254.186-.805.269-1.62.313-2.441.043-.8.063-1.606.117-2.412.019-.283-.161-.503-.098-.816.186-.932-.005-1.894.098-2.836.058-.547-.054-1.153.068-1.627.278-1.108.244-2.202.244-3.315 0-.517-.068-1.05.215-1.533-.01-.049-.015-.093-.024-.142a.205.205 0 0 0-.093-.024c-.034-.01-.068-.015-.103-.025l.088-.058c.01-.044.025-.088.034-.132-.478-.254-.293-.43.069-.581-.181-.273.068-.498.083-.742.044-.772-.005-1.543.097-2.325.103-.82-.053-1.674.088-2.519.201-1.196-.068-2.368-.273-3.54-.171-.991-.498-1.929-1.05-2.788-.81-1.265-2.109-1.87-3.364-2.49-2.11-1.045-4.4-1.538-6.68-2.06-6.294-1.441-12.656-2.335-19.111-2.486-4.702-.108-9.41-.161-14.116-.23-5.567-.083-11.128.108-16.68.46-2.588.16-5.171.439-7.68 1.147-1.217.346-2.447.698-3.433 1.548-1.631 1.41-2.603 3.237-3.223 5.273-.693 2.266-.747 4.629-1.06 6.948-.434 3.233-.664 6.49-.908 9.746L42.19 61.23Zm10.512-9.13c.176-2.569.323-5.142.498-7.71.215-3.135.45-6.265.67-9.395.063-.933.121-1.87.15-2.808.015-.385.142-.547.547-.556 2.188-.054 4.37-.137 6.553-.2 4.116-.123 8.238-.206 12.359-.196 4.804.01 9.594.25 14.39.576 3.364.23 6.733.445 10.097.699 4.004.302 7.998.698 11.977 1.245.44.058.884.107 1.377.166a38.496 38.496 0 0 1-.048 3.52c-.132 2.34-.313 4.673-.406 7.007-.19 4.639-.327 9.282-.512 13.926a385.487 385.487 0 0 1-.45 8.535c-.156 2.432-.381 4.858-.576 7.29-.01.098-.024.195-.122.249-.156 4.649-.474 9.292-.825 13.926.122.908.054 1.821-.02 2.72-.092 1.098-.088 2.202-.19 3.295-.278 2.989-.293 5.997-.571 8.985-.137 1.47-.176 2.949-.269 4.419-.112 1.743-.288 3.486-.332 5.229-.044 1.597.142 1.626-1.645 1.616-2.847-.014-5.699.098-8.54-.034-1.7-.078-3.37.23-5.06.122-2.748-.068-5.502-.141-8.251-.21-2.808-.068-5.615-.166-8.428-.2-3.213-.039-6.42-.019-9.633-.024-.137 0-.274-.015-.41-.02-2.94-.044-5.884-.063-8.824-.136-1.162-.03-2.314-.25-3.481-.24-.547.005-1.02-.39-1.582-.351-.718-.044-1.431-.088-2.149-.127-.308-.015-.513-.093-.478-.479.127-1.465.234-2.934.346-4.404-.254-1.748.108-3.477.196-5.215.063-1.26.175-2.515.263-3.774.161-2.383.327-4.766.484-7.149.014-.224.141-.4.224-.596.03-2.26.279-4.511.406-6.767.112-1.963.273-3.926.415-5.889l1.85-27.046Zm66.997.717.049-.03c-.005.01-.005.02-.01.03-.005.005-.024 0-.039 0Z" fill="#579CF3"></path><path d="M76.296 130.121c3.689 0 6.68-2.886 6.68-6.445 0-3.56-2.991-6.446-6.68-6.446-3.69 0-6.68 2.886-6.68 6.446 0 3.559 2.99 6.445 6.68 6.445Z" fill="#fff"></path><path d="M76.32 116.543c-4.067-.01-7.407 3.237-7.407 7.192.005 3.897 3.31 7.076 7.368 7.076s7.383-3.204 7.398-7.129c.02-3.936-3.277-7.129-7.359-7.139Zm-.107 12.461c-3.086-.01-5.508-2.368-5.483-5.347.024-2.983 2.495-5.307 5.62-5.293 3.095.01 5.542 2.359 5.532 5.313-.01 2.983-2.51 5.337-5.67 5.327ZM91.032 23.218c-3.002-.005-6.01 0-9.013 0v-.19h-9.014c-.234 0-.464.014-.693.082-.469.142-.728.47-.762.933-.034.469.21.82.645 1.02.254.118.522.137.8.142 6.011.054 12.022.117 18.033.171.971.01 1.528-.38 1.533-1.07 0-.688-.552-1.088-1.529-1.088ZM99.319 23.754c-.694.01-1.343.61-1.373 1.27-.029.673.547 1.25 1.25 1.26.748.009 1.397-.577 1.397-1.27.01-.674-.596-1.265-1.275-1.26ZM65.315 39.213c-.117-.352-.357-.547-.728-.576-.542-.005-.893.498-.727 1.138.38 1.508.786 3.012 1.196 4.511.122.444.43.698.918.625a.787.787 0 0 0 .63-.967c-.39-1.591-.772-3.183-1.29-4.731ZM59.787 46.52c-1.162-.855-2.343-1.675-3.579-2.418-.2-.121-.4-.239-.674-.239-.317.025-.58.166-.688.503-.132.435.044.777.41 1.001 1.245.767 2.437 1.607 3.628 2.451.483.342.977.279 1.245-.097.264-.366.142-.845-.342-1.201ZM60.735 40.902c-.171-.263-.396-.425-.718-.43-.674.025-.982.753-.567 1.412a135.58 135.58 0 0 0 2.076 3.169c.385.576.854.722 1.264.425.381-.274.41-.752.059-1.3-.698-1.093-1.411-2.182-2.114-3.276Z" fill="#1F2533"></path><path d="M65.026 114.292c-2.939-.044-5.883-.063-8.823-.136-1.162-.03-2.314-.249-3.481-.24-.547.005-1.02-.39-1.582-.351-.03-.093-.04-.195-.088-.278a21.954 21.954 0 0 1-2.188-4.737c-.254-1.748.108-3.476.196-5.215.063-1.259.175-2.514.263-3.774.161-2.383.328-4.766.484-7.149.014-.224.141-.4.224-.595 1.148-2.412 2.354-4.805 3.238-7.334.488-1.401.937-2.818 1.113-4.302.513-.918.771-1.933 1.138-2.905 1.035-2.75 1.665-5.61 2.348-8.457.025-.112.015-.23.02-.347.303-.058.288-.337.356-.542 1.524-4.517 3.374-8.887 5.918-12.935 2.051-3.266 4.863-5.756 8.13-7.72 2.827-1.698 6.035-2.206 9.258-2.602 2.402-.053 4.766.303 7.065.928 2.954.8 5.733 2.026 8.204 3.892 2.123 1.601 3.876 3.515 5.082 5.893.84 1.655 1.138 3.472 1.539 5.269.683 3.08.771 6.216.952 9.34.063 1.1-.02 2.208.068 3.301.181 2.198.225 4.41.523 6.602.175 1.289.424 2.568.766 3.809.298 1.064.83 2.07 1.343 3.061.312.606.635 1.25 1.279 1.611.122.908.054 1.822-.019 2.72-.093 1.099-.088 2.202-.191 3.296-.278 2.988-.293 5.996-.571 8.984-.137 1.47-.176 2.95-.269 4.419-.112 1.743-.288 3.487-.332 5.23-.044 1.596.142 1.626-1.645 1.616-2.847-.015-5.698.098-8.54-.034-1.7-.078-3.37.229-5.059.122" fill="#7AA780"></path><path d="M65.026 114.292c-2.363-2.627-3.881-5.669-4.59-9.136-.805-3.96-.385-7.803 1.168-11.499 2.124-5.058 5.737-8.672 10.82-10.766a17.392 17.392 0 0 1 5.845-1.309c5.815-.269 10.698 1.777 14.614 6.045 2.539 2.769 4.063 6.079 4.61 9.805.893 6.088-.772 11.45-4.669 16.162-.337.405-.717.771-1.079 1.152-2.749-.068-5.503-.142-8.252-.21-2.807-.068-5.615-.166-8.427-.2-3.213-.039-6.421-.02-9.634-.025-.132 0-.269-.009-.406-.019Z" fill="#FAAA50"></path><path d="M73.415 88.61c.024-1.256-1.099-1.94-2.246-1.324a4.8 4.8 0 0 0-1.08.8 15.408 15.408 0 0 0-3.295 4.79 4.502 4.502 0 0 0-.308 1.065c-.092.567.015 1.109.498 1.48.474.361.992.278 1.49.01.22-.123.449-.24.644-.396 1.792-1.45 3.116-3.267 4.063-5.356.141-.328.195-.674.234-1.07ZM68.904 104.072c-.044-.918-.074-1.831-.137-2.744-.049-.699-.088-1.402-.293-2.08-.161-.538-.361-1.055-1.02-1.133-.743-.088-1.255.205-1.592.913-.567 1.186-.743 2.466-.767 3.755-.02 1.191.122 2.378.64 3.481.312.659.81 1.113 1.582 1.109.625-.005 1.128-.518 1.382-1.329.195-.644.214-1.308.205-1.972Z" fill="#fff"></path><path d="M57.17 68.207c-1.514-1.963-3.447-3.554-4.902-5.566-.093-.127-.176-.254-.264-.381-1.323-1.567-2.431-3.281-3.589-4.966-.16-.24-.132-.478-.088-.727.288-1.748.6-3.492.85-5.24.112-.786.176-1.596-.088-2.373-.293-.864-1.094-1.142-1.88-.664a3.29 3.29 0 0 0-.903.82c-.254.333-.498.68-.772 1.055-.346-1.42-.659-2.783-1.01-4.136-.181-.683-.455-1.333-1.138-1.694-.767-.044-1.192.376-1.421 1.055-.366 1.084-.44 2.207-.342 3.34.03.332.117.659.054 1.094-.2-.328-.352-.577-.503-.82-.786-1.27-1.48-2.608-2.534-3.692-.488-.498-1.162-.689-1.577-.445-.567.332-.528.904-.498 1.456 0 .038.01.078.014.117.26 1.953 1.162 3.652 2.09 5.337.112.205.259.39.235.644l.048.049c-.02-.015-.034-.03-.053-.044-.865-.166-1.665-.537-2.505-.781-.747-.22-1.494-.44-2.285-.396-.806.044-1.206.469-1.187 1.275.015.732.44 1.274.894 1.787 1.748 1.997 4.003 3.154 6.543 3.716 1.03.23 1.547.742 1.738 1.709l.117.57c.332-.004.317.309.405.49a184.48 184.48 0 0 0 5.635 10.243c.933 1.573 1.89 3.13 2.837 4.698 1.06 1.513 2.12 3.027 3.286 4.462.513-.918.772-1.933 1.138-2.905 1.035-2.749 1.665-5.61 2.349-8.457.024-.112.014-.23.019-.347-.308.084-.562-.083-.713-.283Z" fill="#0C5959"></path><path d="m40.114 54.48 3.482-3.544M44.46 52.256l-.952 4.956" stroke="#000" stroke-miterlimit="10"></path><path d="M109.099 74.092a78.178 78.178 0 0 1-.225-4.912c-.039-2.066.005-4.15-.415-6.182-.884-4.297-2.837-8.061-5.786-11.318-2.515-2.778-5.288-5.18-8.877-6.494-2.388-.874-4.81-1.558-7.437-1.694 0-.44.02-.845-.004-1.25-.054-.962-.186-1.91-.728-2.735-.693-1.064-1.9-1.103-2.68-.107-.255.322-.435.688-.591 1.069-.552 1.352-.699 2.778-.806 4.214 2.402-.054 4.765.303 7.065.928 2.954.8 5.733 2.026 8.203 3.891 2.124 1.602 3.877 3.516 5.083 5.894.84 1.655 1.138 3.471 1.538 5.268.684 3.081.772 6.216.953 9.341.063 1.099-.02 2.207.068 3.3.181 2.198.225 4.41.522 6.602.176 1.29.425 2.569.767 3.81.298 1.064.83 2.07 1.343 3.06.312.606.635 1.25 1.279 1.612.352-4.639.669-9.277.825-13.926-.151-.093-.088-.244-.097-.371Z" fill="#0C5959"></path><path d="M85.144 70.943c-.249.151-.483.332-.732.483-1.9 1.162-3.824 1.328-5.796.176-.615-.361-1.084-.884-1.616-1.338-.4-.342-.845-.41-1.275-.058-.351.288-.356.834.034 1.254 1.47 1.583 3.243 2.593 5.474 2.735.322-.034.669-.064 1.016-.112 1.46-.22 2.744-.86 3.896-1.758.435-.342.498-.816.23-1.187-.303-.42-.733-.493-1.23-.195ZM72.346 60.419c-.684-.186-1.362.224-1.821 1.142a10.083 10.083 0 0 0-.85 2.417c-.156.723-.283 1.46-.049 2.193.303.937 1.206 1.176 1.92.507.17-.156.346-.327.463-.522.703-1.216 1.113-2.52 1.201-3.662.025-1.24-.303-1.924-.864-2.075Zm-1.128 2.856c-.444-.03-.66-.293-.66-.732 0-.606.382-1.099.845-1.08.46.02.63.323.67.699.004.6-.41 1.138-.855 1.113ZM96.721 58.096a10.443 10.443 0 0 0-2.915-2.754c-.644-.4-1.118-.381-1.504-.015-.415.395-.527 1.099-.22 1.675.181.342.4.674.655.967.8.937 1.626 1.855 2.92 2.124.761.156 1.367-.288 1.382-1.011a1.641 1.641 0 0 0-.318-.986ZM94.03 63.733c-.346-.844-1.206-1.015-1.884-.4-.489.444-.703 1.016-.889 1.616-.366 1.177-.654 2.368-.415 3.614.098.493.303.922.845 1.098.527.171.893-.083 1.24-.434a2.24 2.24 0 0 0 .459-.67 9.231 9.231 0 0 0 .825-3.486c-.014-.307-.014-.6-.044-.888-.014-.157-.078-.308-.136-.45Zm-1.923 2.242c-.396.005-.699-.342-.684-.786.02-.635.464-1.182.947-1.138.42.039.616.307.62.708.005.62-.434 1.21-.883 1.216ZM73.948 54.15c-.21-.118-.484-.152-.733-.176a6.032 6.032 0 0 0-1.919.122c-.571.127-1.142.278-1.572.722-.606.63-.43 1.519.371 1.875.425.186.874.19 1.235.176a6.55 6.55 0 0 0 2.652-.503c.469-.19.908-.44.888-1.03-.024-.6-.459-.928-.922-1.186Z" fill="#1F2533"></path><path d="M72.091 62.619c.182-.556 0-1.115-.408-1.249-.408-.133-.886.21-1.068.766-.182.556.001 1.115.409 1.248.407.133.885-.21 1.067-.765ZM92.98 65.294c.182-.556-.001-1.115-.409-1.248-.407-.134-.885.21-1.067.765-.182.556 0 1.115.408 1.249.408.133.886-.21 1.068-.766Z" fill="#fff"></path><path d="M81.291 65.82c-1.02-.024-1.958.83-1.953 1.783 0 .982.908 1.807 1.992 1.812 1.07.004 1.987-.801 1.978-1.734-.01-1.01-.904-1.836-2.017-1.86ZM67.243 69.386c-2.075-.05-3.862 1.987-3.92 4.428-.054 2.085 1.87 3.902 4.008 3.916 2.153.01 4.116-1.82 4.14-3.872.02-2.314-1.991-4.414-4.228-4.472ZM93.567 71.377c-2.022-.029-3.858 1.953-3.868 4.414-.01 2.461 2.115 3.926 3.98 3.931 2.182.015 4.155-1.84 4.155-3.911 0-2.324-2.022-4.4-4.267-4.434Z" fill="#F26943"></path><path d="M84.587 54.434c-.464.015-.8.444-.81 1.04-.01.6.322 1.035.79 1.03.494-.005.84-.434.85-1.064.01-.567-.361-1.02-.83-1.006ZM85.959 50.098c-.445.005-.88.547-.86 1.069.02.523.386.908.86.903.507-.005.844-.424.844-1.045 0-.517-.38-.932-.844-.927ZM82.34 50.898c-.507.005-.868.4-.878.967-.005.489.39.962.82.982.4.024.87-.508.884-1.006.015-.508-.366-.947-.825-.943ZM58.884 83.462c-.46.025-.782.381-.767.943.03.38.283.615.752.605.454-.014.786-.386.776-.85-.01-.424-.332-.722-.761-.698ZM103.596 101.548c-.435.024-.732.258-.791.703-.049.39.4.8.84.781.449-.024.703-.274.752-.674.005-.425-.401-.83-.801-.81ZM101.906 97.804c-.429.024-.742.22-.776.703-.01.405.357.762.796.771.391.005.791-.356.786-.712.005-.406-.376-.787-.806-.762ZM56.818 84.697c-.42.01-.717.337-.688.777.034.469.317.678.542.693.698.02.889-.278.928-.683.029-.386-.4-.796-.782-.787ZM58.645 86.762c-.45.015-.684.308-.694.708-.01.445.288.708.728.757.42.044.737-.273.742-.708a.728.728 0 0 0-.776-.757ZM104.856 97.944c-.406.039-.694.224-.689.703.005.454.264.683.674.722.415.04.742-.317.732-.732-.005-.371-.346-.728-.717-.693Z" fill="#0C5959"></path></g><defs><clipPath id="avoca-circle_svg__a"><path fill="#fff" transform="translate(.5)" d="M0 0h150v150H0z"></path></clipPath></defs></svg>