<svg width="44" height="44" fill="none" xmlns="http://www.w3.org/2000/svg" class="socialLinks_icon__KQid8" role="img" aria-label="Одноклассники"><g clip-path="url(#ok_svg__a)"><mask id="ok_svg__b" style="mask-type:luminance" maskUnits="userSpaceOnUse" x="0" y="0" width="44" height="44"><path d="M44 0H0v44h44V0Z" fill="#fff"></path></mask><g mask="url(#ok_svg__b)"><path d="M0 21.119C0 11.166 0 6.19 3.095 3.095 6.191 0 11.167 0 21.12 0h1.762c9.953 0 14.928 0 18.024 3.095C44 6.191 44 11.167 44 21.12v1.762c0 9.953 0 14.928-3.095 18.024C37.809 44 32.833 44 22.88 44H21.12c-9.953 0-14.928 0-18.024-3.095C0 37.809 0 32.833 0 22.88V21.12Z" fill="#241F20"></path><path d="M22 21.882a7.741 7.741 0 0 0 5.505-2.272 7.775 7.775 0 0 0 2.272-5.505A7.74 7.74 0 0 0 27.505 8.6 7.741 7.741 0 0 0 22 6.328 7.741 7.741 0 0 0 16.495 8.6a7.741 7.741 0 0 0-2.273 5.505c0 2.155.863 4.094 2.273 5.505A7.823 7.823 0 0 0 22 21.882Zm-2.488-10.285A3.511 3.511 0 0 1 22 10.56c.98 0 1.861.392 2.488 1.038a3.512 3.512 0 0 1 1.038 2.488c0 .96-.392 1.861-1.038 2.488A3.511 3.511 0 0 1 22 17.612c-.98 0-1.861-.392-2.488-1.039a3.511 3.511 0 0 1-1.038-2.488c0-.96.392-1.841 1.038-2.488Z" fill="#fff"></path><path d="m32.461 25.017-2.292-3.115c-.137-.176-.372-.196-.548-.059-2.155 1.842-4.8 3.017-7.64 3.017-2.841 0-5.486-1.195-7.64-3.017a.382.382 0 0 0-.55.06l-2.272 3.114a.363.363 0 0 0 .059.49c1.92 1.567 4.153 2.605 6.484 3.154l-4.819 8.483a.37.37 0 0 0 .333.528h4.721a.362.362 0 0 0 .334-.215L22 29.934l3.37 7.523a.362.362 0 0 0 .333.215h4.72c.275 0 .452-.293.314-.528l-4.819-8.483c2.331-.549 4.545-1.587 6.465-3.154.157-.118.176-.333.078-.49Z" fill="#fff"></path></g></g><defs><clipPath id="ok_svg__a"><rect width="44" height="44" rx="22" fill="#fff"></rect></clipPath></defs></svg>