<svg width="44" height="44" fill="none" xmlns="http://www.w3.org/2000/svg" class="socialLinks_icon__KQid8" role="img" aria-label="Pinterest"><path d="M22.002.001C9.85.001 0 9.851 0 21.998c0 9.01 5.416 16.749 13.17 20.151-.066-1.537-.015-3.38.379-5.05.425-1.787 2.834-11.99 2.834-11.99s-.702-1.404-.702-3.479c0-3.261 1.889-5.695 4.24-5.695 2.003 0 2.968 1.504 2.968 3.302 0 2.01-1.281 5.021-1.94 7.807-.551 2.334 1.17 4.238 3.47 4.238 4.169 0 6.977-5.355 6.977-11.697 0-4.82-3.248-8.43-9.155-8.43-6.675 0-10.83 4.977-10.83 10.535 0 1.918.563 3.268 1.45 4.314.406.482.463.676.314 1.227-.105.405-.345 1.38-.448 1.765-.146.558-.596.756-1.101.552-3.074-1.257-4.503-4.62-4.503-8.405 0-6.25 5.27-13.742 15.72-13.742 8.401 0 13.932 6.076 13.932 12.6 0 8.63-4.8 15.08-11.874 15.08-2.375 0-4.609-1.286-5.374-2.744 0 0-1.278 5.07-1.546 6.047-.468 1.695-1.381 3.392-2.215 4.714a22 22 0 0 0 6.236.901C34.152 44 44 34.15 44 21.998 44 9.85 34.152.001 22.002.001Z" fill="#241F20"></path></svg>