<svg width="44" height="44" fill="none" xmlns="http://www.w3.org/2000/svg" class="socialLinks_icon__KQid8" role="img" aria-label="Telegram"><path d="M0 22C0 9.85 9.85 0 22 0s22 9.85 22 22-9.85 22-22 22S0 34.15 0 22Z" fill="#241F20"></path><path d="m19.78 24.734-.34 4.799c.487 0 .699-.21.952-.462l2.289-2.187 4.742 3.473c.87.485 1.482.23 1.717-.8l3.112-14.585.001-.001c.276-1.286-.465-1.789-1.312-1.473l-18.296 7.005c-1.249.484-1.23 1.18-.212 1.496l4.677 1.455 10.865-6.799c.512-.339.977-.151.594.187l-8.789 7.892Z" fill="#fff"></path></svg>