<svg width="44" height="44" fill="none" xmlns="http://www.w3.org/2000/svg" class="socialLinks_icon__KQid8" role="img" aria-label="Viber"><path d="M0 22C0 9.85 9.85 0 22 0s22 9.85 22 22-9.85 22-22 22S0 34.15 0 22Z" fill="#241F20"></path><g clip-path="url(#viber_svg__a)" fill="#fff"><path d="M33.434 24.093c.722-6.077-.347-9.914-2.275-11.65h.001c-3.112-2.964-13.622-3.403-17.345.132-1.672 1.73-2.26 4.268-2.325 7.41-.065 3.143-.141 9.032 5.345 10.629h.005l-.005 2.44s-.037.987.595 1.186c.721.234 1.048-.225 3.294-2.907 3.755.326 6.64-.42 6.967-.53.758-.254 5.05-.821 5.743-6.71Zm-12.34 5.524s-2.377 2.963-3.116 3.733c-.242.25-.507.227-.503-.27 0-.325.018-4.05.018-4.05-4.652-1.332-4.377-6.346-4.327-8.97.05-2.623.53-4.772 1.946-6.219 3.266-3.063 12.48-2.378 14.828-.171 2.87 2.544 1.848 9.732 1.854 9.977-.59 4.915-4.067 5.226-4.706 5.44-.273.09-2.81.742-5.994.53Z"></path><path d="M22.408 14.417c-.388 0-.388.605 0 .61 3.012.023 5.493 2.123 5.52 5.974 0 .406.595.401.59-.005-.033-4.15-2.742-6.556-6.11-6.579Z"></path><path d="M26.37 20.363c-.009.402.585.42.59.014.05-2.288-1.36-4.172-4.012-4.371-.388-.028-.429.582-.041.61 2.299.174 3.51 1.744 3.464 3.747Zm-.635 2.603c-.498-.289-1.005-.11-1.215.174l-.439.568c-.223.288-.639.25-.639.25-3.04-.804-3.852-3.984-3.852-3.984s-.038-.431.24-.662l.55-.454c.274-.218.447-.742.168-1.257-.746-1.348-1.248-1.813-1.503-2.17-.268-.336-.671-.412-1.09-.185h-.01c-.872.51-1.827 1.465-1.522 2.449.522 1.036 1.48 4.34 4.533 6.838 1.435 1.18 3.706 2.39 4.67 2.67l.01.014c.95.317 1.873-.676 2.366-1.574v-.007c.219-.435.146-.846-.173-1.116-.567-.552-1.422-1.162-2.094-1.554Z"></path><path d="M23.364 18.256c.97.057 1.44.563 1.49 1.603.018.406.608.378.59-.029-.065-1.357-.773-2.113-2.048-2.184-.388-.023-.424.587-.032.61Z"></path></g><defs><clipPath id="viber_svg__a"><path fill="#fff" transform="translate(10.084 10.084)" d="M0 0h24.202v24.202H0z"></path></clipPath></defs></svg>