<svg width="44" height="44" fill="none" xmlns="http://www.w3.org/2000/svg" class="socialLinks_icon__KQid8" role="img" aria-label="Вконтакте"><circle cx="22" cy="22" r="22" fill="#241F20"></circle><path fill-rule="evenodd" clip-rule="evenodd" d="M34.341 16.18c.208-.666 0-1.15-.92-1.15h-3.054c-.77 0-1.126.424-1.334.878 0 0-1.572 3.871-3.766 6.382-.712.726-1.038.968-1.423.968-.208 0-.475-.242-.475-.907v-6.202c0-.786-.237-1.149-.89-1.149h-4.803c-.475 0-.771.363-.771.726 0 .756 1.097.938 1.215 3.055v4.598c0 .998-.178 1.18-.563 1.18-1.038 0-3.559-3.902-5.071-8.349-.297-.877-.593-1.21-1.364-1.21H8.038c-.89 0-1.038.424-1.038.877 0 .817 1.038 4.93 4.834 10.376 2.52 3.72 6.108 5.717 9.34 5.717 1.958 0 2.195-.454 2.195-1.21v-2.813c0-.908.178-1.059.8-1.059.445 0 1.246.242 3.055 2.027C29.3 31.032 29.656 32 30.812 32h3.055c.89 0 1.304-.454 1.067-1.331-.267-.877-1.275-2.148-2.58-3.66-.712-.847-1.779-1.785-2.105-2.239-.445-.604-.326-.846 0-1.391-.03 0 3.707-5.384 4.092-7.2Z" fill="#fff"></path></svg>