<svg width="44" height="44" fill="none" xmlns="http://www.w3.org/2000/svg" class="socialLinks_icon__KQid8" role="img" aria-label="Youtube"><path d="M0 22C0 9.85 9.85 0 22 0s22 9.85 22 22-9.85 22-22 22S0 34.15 0 22Z" fill="#241F20"></path><path d="M33.243 16.567a2.98 2.98 0 0 0-2.075-2.13c-1.83-.503-9.168-.503-9.168-.503s-7.338 0-9.168.503a2.979 2.979 0 0 0-2.075 2.13c-.49 1.88-.49 5.8-.49 5.8s0 3.92.49 5.8a2.98 2.98 0 0 0 2.075 2.13C14.662 30.8 22 30.8 22 30.8s7.338 0 9.168-.503a2.98 2.98 0 0 0 2.075-2.13c.49-1.88.49-5.8.49-5.8s0-3.92-.49-5.8" fill="#fff"></path><path d="M19.8 26.4v-7.334l5.866 3.667L19.8 26.4Z" fill="#241F20"></path></svg>