<svg viewBox="0 0 60 60" fill="none" xmlns="http://www.w3.org/2000/svg"><circle cx="30" cy="30" r="30" fill="#FFDE00"></circle><path d="M35.678 19.204a2.1 2.1 0 1 0 4.2 0 2.1 2.1 0 0 0-4.2 0Zm2.1-.9a.9.9 0 1 1 0 1.8.9.9 0 0 1 0-1.8Z" fill="#241F20"></path><path d="M47.4 31.201h-1.86c.179-.219.323-.464.428-.727a12.283 12.283 0 0 0 .743-3.095 1.847 1.847 0 0 0-.48-1.45 1.8 1.8 0 0 0-.476-.36 2.114 2.114 0 0 0-1.508-1.993l-.492-.15-.35 1.148.492.15a.943.943 0 0 1 .629.638 1.846 1.846 0 0 0-1.566 1.645 8.76 8.76 0 0 1-1.457 3.928.584.584 0 0 0-.093.267h-.723a4.21 4.21 0 0 0-1.2-2.26l8.056-14.255a1.757 1.757 0 1 0-3.114-1.628l-7.095 14.764a4.151 4.151 0 0 0-3.258.74c-.025-.076-.046-.154-.075-.23a4.816 4.816 0 0 0-2.981-2.848c.352-.36.647-.77.877-1.217a4.196 4.196 0 0 0 4.737 1.704.599.599 0 0 0 .409-.44 4.184 4.184 0 0 0-5.112-4.994 4.453 4.453 0 0 0-.385-.639c.12-.45.143-.92.065-1.38a4.19 4.19 0 0 0 4.803-5.347.6.6 0 0 0-.44-.409 4.182 4.182 0 0 0-5.123 4.127 3.354 3.354 0 0 0-.389-.383 3.293 3.293 0 0 0-5.69-3.2 3.207 3.207 0 0 0-.233.364 3.294 3.294 0 0 0-3.823 1.063c-.339.449-.554.979-.623 1.537a3.233 3.233 0 0 0-.629-.068 3.304 3.304 0 0 0-3.3 3.3c0 .147.01.294.032.439a3.278 3.278 0 0 0-1.293 5.609 3.3 3.3 0 0 0 2.048 4.964c-.067.224-.11.454-.128.686H12.6a.6.6 0 0 0-.6.6C12 40.733 20.075 48 30 48s18-7.267 18-16.198a.6.6 0 0 0-.6-.6Zm-3.615-2.28c.177-.579.3-1.174.369-1.776a.654.654 0 0 1 .621-.603h.089a.577.577 0 0 1 .488.206.645.645 0 0 1 .168.51 11.133 11.133 0 0 1-.67 2.794 1.612 1.612 0 0 1-1.05.97 1.67 1.67 0 0 1-.937.01 9.893 9.893 0 0 0 .922-2.11Zm1.727-15.344a.556.556 0 0 1 1.038.084.557.557 0 0 1-.05.433l-7.98 14.129-.034-.018 7.026-14.628Zm-7.57 15.705a2.994 2.994 0 0 1 1.514 1.92h-5.284c.1-.405.148-.822.14-1.24a2.972 2.972 0 0 1 3.63-.68Zm-9.087-6.751a1.196 1.196 0 0 1-1.283 1.4 1.181 1.181 0 0 1-.3-.072l1.583-1.328Zm1.56 4.032-.862 1.926-.762-1.957a3.568 3.568 0 0 1 1.629.031h-.005Zm2.63 2.779c.107.531.092 1.08-.045 1.605l-1.92-.859 1.964-.746Zm-5.37-2.372.752 1.931-1.907-.854c.3-.442.694-.81 1.155-1.08v.003Zm-1.852 2.08 4.81 2.151h-4.26c.01-.1.026-.198.026-.3 0-.661-.2-1.307-.576-1.852v.002Zm6.788-.827-1.955.746.855-1.91c.45.299.826.696 1.1 1.162v.002ZM31.15 22.65a3.628 3.628 0 0 1-1.478 2.447c-.068.055-.133.103-.199.154a4.823 4.823 0 0 0-3.18 1.246 2.46 2.46 0 0 1-1.41-.63l1.41-1.183a2.374 2.374 0 0 0 1.39.453 2.388 2.388 0 0 0 2.157-3.428l.942-.79c.299.524.428 1.129.368 1.73v.001Zm1.267-.998a2.981 2.981 0 0 1 3.474 2.405l-1.376-1.274-.815.88 1.374 1.274a2.978 2.978 0 0 1-2.657-3.285Zm2.936-7.777a2.978 2.978 0 0 1-2.405 3.472l1.275-1.374-.88-.816-1.275 1.374a2.978 2.978 0 0 1 3.285-2.656Zm-13.68 1.587a2.095 2.095 0 0 1 2.83-.464.6.6 0 0 0 .9-.308c.074-.236.185-.46.328-.66a2.093 2.093 0 0 1 3.448 2.367.6.6 0 0 0 .217.84c.09.05.174.098.24.145a2.09 2.09 0 0 1 .71 2.33l-4.892 4.105c-.052-.055-.101-.113-.158-.163a3.27 3.27 0 0 0 .129-3.263l1.509-2.936-1.068-.548-1.263 2.46a3.282 3.282 0 0 0-1.978-.764 3.263 3.263 0 0 0-1.365-1.841 2.028 2.028 0 0 1 .411-1.3h.002Zm-3.29 14.213a.595.595 0 0 0-.578-.288l-.104.015a2.1 2.1 0 0 1-1.512-3.556.599.599 0 0 0-.133-.936 2.082 2.082 0 0 1 .915-3.89.6.6 0 0 0 .527-.8 2.14 2.14 0 0 1-.133-.719 2.1 2.1 0 0 1 2.1-2.1 2.08 2.08 0 0 1 1.717.917c.198.29.32.626.356.976a.606.606 0 0 0 .695.534 1.8 1.8 0 0 1 .268-.025 2.1 2.1 0 0 1 1.512 3.556.6.6 0 0 0 .134.936c.142.082.272.18.39.292l-.922.774a.6.6 0 0 0-.073.845c.356.434.79.798 1.28 1.072a2.09 2.09 0 0 1-.78.687.6.6 0 0 0-.006 1.07c.15.075.29.168.415.278a2.053 2.053 0 0 1 .75 1.589c-.001.1-.01.2-.026.3h-3.048l-1.736-9.705-1.18.211 1.697 9.494h-2.885a2.1 2.1 0 0 1 .342-.881.6.6 0 0 0 .019-.646ZM30 46.8c-9.038 0-16.433-6.406-16.787-14.399h33.574C46.433 40.394 39.038 46.8 30 46.8Z" fill="#241F20"></path><path d="m34.686 44.341.167.576a16.055 16.055 0 0 0 6.434-3.6l-.408-.44-.408-.44a14.832 14.832 0 0 1-5.952 3.325l.167.577v.002ZM42.91 39.541l-.952-.728c-.216.28-.45.56-.696.83l.887.808c.271-.295.525-.6.76-.91ZM40.908 15.463l-1.152.336.452 1.548 1.152-.336-.452-1.548ZM38.613 12.823l-1.225 1.158.824.872 1.225-1.158-.824-.872Z" fill="#241F20"></path></svg>