<svg viewBox="0 0 60 60" fill="none" xmlns="http://www.w3.org/2000/svg"><rect width="60" height="60" rx="30" fill="#FFDE00"></rect><path d="M16.966 21.786v3.724h1.241v-3.103h.62v-1.241h-1.24a.62.62 0 0 0-.621.62ZM21.31 21.166H20.07v1.24h1.241v-1.24Z" fill="#241F20"></path><path d="M12 18.062v21.104a1.862 1.862 0 0 0 1.862 1.862h1.241v1.862a.62.62 0 0 0 .621.62h2.483a.62.62 0 0 0 .62-.62v-1.862h22.345v1.862a.62.62 0 0 0 .621.62h2.483a.62.62 0 0 0 .62-.62v-1.862h1.242A1.862 1.862 0 0 0 48 39.166V18.062a1.862 1.862 0 0 0-1.862-1.862H13.862A1.862 1.862 0 0 0 12 18.062Zm31.655 24.207h-1.241v-1.241h1.241v1.24ZM39.31 17.44h6.828a.62.62 0 0 1 .62.621v5.586H39.31v-6.207Zm0 7.449h7.449v1.241H39.31V24.89Zm0 2.482h7.449v11.794a.62.62 0 0 1-.621.62H39.31V27.372ZM17.586 42.27h-1.241v-1.241h1.241v1.24Zm-4.345-24.207a.62.62 0 0 1 .621-.62H38.07v22.344H13.862a.62.62 0 0 1-.62-.62V18.062Z" fill="#241F20"></path><path d="M43.035 18.683h-2.483v1.241h2.483v-1.241ZM45.517 18.683h-1.241v1.241h1.241v-1.241ZM43.035 21.166h-2.483v1.24h2.483v-1.24ZM45.517 21.166h-1.241v1.24h1.241v-1.24ZM45.517 36.062a2.483 2.483 0 1 0-4.965 0 2.483 2.483 0 0 0 4.965 0Zm-3.724 0a1.242 1.242 0 1 1 2.483 0 1.242 1.242 0 0 1-2.483 0ZM43.034 32.338a1.862 1.862 0 1 0 0-3.724 1.862 1.862 0 0 0 0 3.724Zm0-2.483a.621.621 0 1 1 0 1.242.621.621 0 0 1 0-1.242ZM15.103 38.545h21.104a.62.62 0 0 0 .62-.62V19.303a.62.62 0 0 0-.62-.621H15.103a.62.62 0 0 0-.62.62v18.621a.62.62 0 0 0 .62.62Zm.621-18.62h19.862v17.379H15.724v-17.38Z" fill="#241F20"></path><path d="M30.62 24.89a1.84 1.84 0 0 1-1.282-.497 3.134 3.134 0 0 0-4.057 0 1.905 1.905 0 0 1-2.564 0 3.05 3.05 0 0 0-2.027-.745.62.62 0 0 0 0 1.242c.475-.007.934.171 1.28.496a3.133 3.133 0 0 0 4.056 0 1.907 1.907 0 0 1 2.567 0 3.046 3.046 0 0 0 2.028.745.62.62 0 0 0 0-1.241ZM30.62 28.614a1.84 1.84 0 0 1-1.282-.497 3.134 3.134 0 0 0-4.057 0 1.905 1.905 0 0 1-2.564 0 3.049 3.049 0 0 0-2.027-.745.62.62 0 0 0 0 1.242c.475-.007.934.171 1.28.496a3.133 3.133 0 0 0 4.056 0 1.907 1.907 0 0 1 2.567 0 3.046 3.046 0 0 0 2.028.745.62.62 0 0 0 0-1.241ZM30.62 32.338a1.84 1.84 0 0 1-1.282-.497 3.134 3.134 0 0 0-4.057 0 1.904 1.904 0 0 1-2.564 0 3.049 3.049 0 0 0-2.027-.744.62.62 0 0 0 0 1.241c.475-.007.934.171 1.28.496a3.133 3.133 0 0 0 4.056 0 1.907 1.907 0 0 1 2.567 0 3.045 3.045 0 0 0 2.028.745.62.62 0 1 0 0-1.241Z" fill="#241F20"></path></svg>