<svg viewBox="0 0 60 60" fill="none" xmlns="http://www.w3.org/2000/svg"><rect width="60" height="60" rx="30" fill="#FFDE00"></rect><path d="M29.76 43.928h-2.074a2.87 2.87 0 0 0-5.637 0h-4.647a1.332 1.332 0 0 1-1.33-1.33V35.6a1.332 1.332 0 0 1 1.33-1.33h.933a.535.535 0 1 0 0-1.072h-.118l.975-.809a4.144 4.144 0 0 1 3.64-.828l6.55 1.637h-6.38a.535.535 0 1 0 0 1.071h10.195v1.322a2.403 2.403 0 0 0-.52 4.5.866.866 0 0 1 .52.757v1.51a.536.536 0 0 0 1.072 0v-1.51a1.928 1.928 0 0 0-1.121-1.72 1.33 1.33 0 0 1 .585-2.526.534.534 0 0 0 .536-.536v-2.332c0-.015-.008-.027-.009-.041a.51.51 0 0 0-.021-.106.479.479 0 0 0-.239-.307.514.514 0 0 0-.101-.049c-.013-.004-.023-.013-.037-.017L23.091 30.52a5.21 5.21 0 0 0-4.584 1.044l-2.672 2.218c-.012.01-.017.024-.028.035A2.386 2.386 0 0 0 15 35.599v7A2.405 2.405 0 0 0 17.402 45h5.133a.536.536 0 0 0 .535-.536 1.797 1.797 0 0 1 3.595 0A.534.534 0 0 0 27.2 45h2.56a.536.536 0 0 0 0-1.072Z" fill="#241F20"></path><path d="M25.732 37.466a1.468 1.468 0 1 0 2.936 0 1.468 1.468 0 0 0-2.936 0Zm1.866 0a.398.398 0 1 1-.796-.001.398.398 0 0 1 .796 0ZM20.668 35.997a2.402 2.402 0 1 0 0 4.804 2.402 2.402 0 0 0 0-4.804Zm0 3.732a1.33 1.33 0 1 1 0-2.66 1.33 1.33 0 0 1 0 2.66ZM43.064 43.929h-5.063V32.84A7.539 7.539 0 0 0 45 25.334c0-3.922-2.273-9.748-2.37-9.995a.535.535 0 0 0-.498-.339h-9.333a.536.536 0 0 0-.505.357c-.096.272-2.363 6.704-2.363 9.977a7.539 7.539 0 0 0 6.999 7.507V43.93h-5.064a.536.536 0 1 0 0 1.071h11.198a.535.535 0 1 0 0-1.071ZM31.03 25.869h10.912a.536.536 0 1 0 0-1.07H31.022a44.439 44.439 0 0 1 2.16-8.728h8.58c.484 1.303 2.167 6.062 2.167 9.263a6.46 6.46 0 0 1-12.9.536Z" fill="#241F20"></path></svg>